<?xml version="1.0" encoding="utf-8"?>
<!-- Generator: Adobe Adobe Illustrator 24.2.0, SVG Export Plug-In . SVG Version: 6.00 Build 0)  -->
<svg version="1.1" id="레이어_1" xmlns="http://www.w3.org/2000/svg" xmlns:xlink="http://www.w3.org/1999/xlink" x="0px"
	 y="0px" width="100px" height="25px" viewBox="0 0 100 25" style="enable-background:new 0 0 100 25;" xml:space="preserve">
<g>
	<path d="M20.53,16.02l-1.9,6.49H-0.01l0.24-1.04c0.24-0.01,0.59-0.04,1.06-0.11c0.47-0.06,0.82-0.13,1.05-0.21
		c0.38-0.12,0.67-0.31,0.86-0.56c0.19-0.25,0.32-0.54,0.4-0.87L6.87,5.58c0.05-0.2,0.08-0.37,0.1-0.5C6.99,4.95,7,4.85,7,4.78
		c0-0.4-0.2-0.71-0.61-0.93c-0.4-0.22-1.06-0.4-1.98-0.53l0.24-1.04h11.12l-0.24,1.04c-0.3,0.02-0.69,0.06-1.17,0.14
		s-0.84,0.15-1.08,0.22c-0.4,0.12-0.69,0.32-0.87,0.59c-0.18,0.27-0.31,0.56-0.39,0.86L8.93,18.57c-0.07,0.28-0.12,0.54-0.16,0.81
		c-0.04,0.26-0.06,0.46-0.06,0.61c0,0.55,0.2,0.91,0.61,1.06c0.4,0.16,1.23,0.24,2.48,0.24c0.76,0,1.52-0.06,2.27-0.17
		s1.31-0.32,1.68-0.63c0.59-0.48,1.25-1.16,1.97-2.05c0.72-0.89,1.31-1.69,1.77-2.42H20.53z"/>
	<path d="M19.93,22.51l0.24-1.04c0.28-0.01,0.65-0.04,1.13-0.09c0.48-0.05,0.84-0.12,1.1-0.21c0.37-0.12,0.65-0.31,0.85-0.56
		s0.33-0.54,0.41-0.88l3.27-14.15c0.05-0.2,0.08-0.37,0.1-0.5c0.02-0.13,0.03-0.23,0.03-0.3c0-0.4-0.22-0.71-0.66-0.93
		c-0.44-0.22-1.12-0.4-2.03-0.53l0.24-1.04h11.23l-0.24,1.04c-0.3,0.02-0.69,0.06-1.17,0.14s-0.83,0.15-1.07,0.22
		c-0.39,0.12-0.68,0.32-0.86,0.58c-0.19,0.26-0.32,0.56-0.39,0.88l-3.27,14.16c-0.04,0.16-0.07,0.31-0.09,0.46
		c-0.02,0.14-0.04,0.25-0.04,0.33c0,0.48,0.22,0.81,0.66,0.99c0.44,0.19,1.12,0.32,2.05,0.41l-0.24,1.04H19.93z"/>
	<path d="M66.01,2.27l-0.24,1.04c-0.29,0.02-0.66,0.07-1.1,0.14c-0.44,0.08-0.77,0.15-1,0.21c-0.39,0.12-0.68,0.32-0.86,0.58
		s-0.32,0.56-0.39,0.87l-3.21,14.16c-0.03,0.14-0.06,0.29-0.09,0.43c-0.03,0.14-0.04,0.26-0.04,0.36c0,0.43,0.18,0.74,0.53,0.94
		c0.35,0.2,1.04,0.35,2.07,0.46l-0.24,1.04H50.51l0.24-1.04c0.38-0.05,0.77-0.1,1.17-0.16c0.4-0.06,0.7-0.12,0.91-0.2
		c0.39-0.14,0.69-0.33,0.9-0.58c0.21-0.24,0.36-0.56,0.44-0.95L57.61,4.4h-0.15L46.47,22.18h-1.8c-0.02-0.37-0.09-0.97-0.2-1.79
		c-0.11-0.82-0.22-1.59-0.31-2.32L42.22,4.17h-0.15l-2.85,12.39c-0.11,0.48-0.2,0.94-0.27,1.39c-0.07,0.45-0.1,0.85-0.1,1.21
		c0,0.38,0.04,0.68,0.12,0.89c0.08,0.21,0.19,0.39,0.34,0.53c0.2,0.2,0.57,0.39,1.12,0.56c0.55,0.18,0.95,0.28,1.22,0.32l-0.24,1.04
		h-8.71l0.24-1.04c0.25-0.03,0.65-0.09,1.21-0.19c0.56-0.1,1.04-0.27,1.44-0.52c0.43-0.27,0.78-0.71,1.06-1.32
		c0.28-0.61,0.56-1.52,0.83-2.73l2.32-10c0.08-0.34,0.13-0.6,0.15-0.78c0.02-0.18,0.04-0.36,0.04-0.53c0-0.29-0.04-0.55-0.12-0.77
		c-0.08-0.22-0.2-0.41-0.36-0.57c-0.29-0.29-0.64-0.47-1.04-0.56c-0.4-0.09-0.79-0.15-1.17-0.18l0.24-1.04h9.26l1.95,13.33
		l6.62-10.82c0.29-0.49,0.55-1,0.79-1.53c0.23-0.52,0.37-0.85,0.41-0.98H66.01z"/>
	<path d="M63.27,22.51l0.24-1.04c0.28-0.01,0.65-0.04,1.13-0.09c0.48-0.05,0.84-0.12,1.1-0.21c0.37-0.12,0.65-0.31,0.85-0.56
		c0.19-0.25,0.33-0.54,0.41-0.88l3.27-14.15c0.05-0.2,0.08-0.37,0.1-0.5c0.02-0.13,0.03-0.23,0.03-0.3c0-0.4-0.22-0.71-0.66-0.93
		c-0.44-0.22-1.12-0.4-2.03-0.53l0.24-1.04h11.23l-0.24,1.04c-0.3,0.02-0.69,0.06-1.17,0.14s-0.83,0.15-1.07,0.22
		c-0.39,0.12-0.68,0.32-0.86,0.58c-0.19,0.26-0.32,0.56-0.39,0.88l-3.27,14.16c-0.04,0.16-0.07,0.31-0.09,0.46
		c-0.02,0.14-0.04,0.25-0.04,0.33c0,0.48,0.22,0.81,0.66,0.99c0.44,0.19,1.12,0.32,2.05,0.41l-0.24,1.04H63.27z"/>
	<path d="M100,2.27l-1.34,5.79h-1.1c-0.04-0.32-0.11-0.73-0.22-1.21s-0.26-0.96-0.45-1.44c-0.2-0.49-0.42-0.9-0.65-1.23
		c-0.23-0.32-0.51-0.51-0.83-0.57c-0.29-0.04-0.65-0.07-1.09-0.1c-0.44-0.03-0.83-0.04-1.15-0.04h-0.71L88.82,19.2
		c-0.04,0.16-0.07,0.32-0.09,0.46c-0.02,0.15-0.04,0.25-0.04,0.32c0,0.23,0.04,0.43,0.14,0.61c0.09,0.18,0.26,0.32,0.51,0.42
		c0.23,0.09,0.56,0.19,1,0.28c0.44,0.09,0.8,0.15,1.08,0.18l-0.24,1.04H79.89l0.24-1.04c0.27-0.02,0.66-0.06,1.17-0.11
		s0.88-0.12,1.1-0.2c0.38-0.15,0.67-0.36,0.86-0.61c0.19-0.26,0.32-0.56,0.4-0.91l3.74-16.16h-0.56c-0.36,0-0.72,0.01-1.09,0.04
		c-0.37,0.02-0.78,0.06-1.25,0.11c-0.34,0.05-0.73,0.25-1.15,0.61s-0.83,0.76-1.23,1.18c-0.48,0.53-0.87,1.02-1.18,1.45
		c-0.31,0.43-0.57,0.83-0.79,1.21h-1.1l1.34-5.79H100z"/>
</g>
</svg>
