<svg width="1000" height="1000" viewBox="0 0 1000 1000" fill="none" xmlns="http://www.w3.org/2000/svg">
<path d="M0 9.99999C0 4.47714 4.47715 0 10 0H990C995.523 0 1000 4.47715 1000 10V990C1000 995.523 995.523 1000 990 1000H9.99999C4.47714 1000 0 995.523 0 990V9.99999Z" fill="#E2E2E2"/>
<path d="M300.848 445.318C299.846 447.388 300.215 447.675 303.641 447.675C309.385 447.675 311.756 450.148 311.177 455.668C310.861 458.945 292.363 541.458 291.256 544.563C289.464 549.623 286.092 552.153 280.136 552.785C276.764 553.13 276.342 553.303 276.184 554.51L276.026 555.775H317.343H358.659L361.453 546.978C362.928 542.205 365.721 533.465 367.566 527.658C369.41 521.793 370.939 516.963 370.939 516.79C370.939 516.675 370.306 516.675 369.568 516.79C368.409 516.905 367.618 517.998 365.036 522.943C358.712 535.133 353.073 542.263 346.749 545.943C341.637 548.875 338.633 549.45 327.566 549.45H317.606L316.025 547.668C314.55 546.058 314.444 545.713 314.708 542.953C315.077 539.273 333.1 459.29 334.365 455.725C336.262 450.263 339.266 448.135 345.643 447.675C350.069 447.388 350.122 447.388 350.28 445.778L350.438 444.225H325.933C302.218 444.225 301.375 444.283 300.848 445.318Z" fill="#B8B8B8"/>
<path d="M395.233 445.49C394.812 446.755 394.97 446.87 398.553 447.445C403.138 448.25 403.876 448.538 404.93 450.32C405.984 452.045 406.037 454.46 405.194 458.888C403.718 466.765 386.222 543.183 385.431 545.195C383.692 549.738 380.583 551.923 374.628 552.613C372.73 552.843 371.044 553.303 370.833 553.705C369.568 555.775 369.779 555.775 394.812 555.66L419.159 555.488L419.317 553.878C419.475 552.325 419.475 552.325 416.524 552.325C410.885 552.325 408.039 549.45 408.672 544.505C409.41 539.1 427.38 460.095 428.909 455.61C430.7 450.32 433.652 448.135 439.976 447.388C441.873 447.158 443.559 446.698 443.77 446.295C445.035 444.225 444.771 444.225 419.95 444.225H395.655L395.233 445.49Z" fill="#B8B8B8"/>
<path d="M449.778 445.145C449.198 446.813 449.409 446.985 452.781 447.33C459.105 448.078 461.055 450.608 460.001 456.588C459.422 459.808 442.241 536.168 441.029 540.94C440.713 542.09 439.712 544.275 438.711 545.828C436.55 549.335 431.596 552.325 428.065 552.325C426.01 552.325 425.641 552.498 425.219 553.82C424.903 554.625 424.692 555.373 424.692 555.545C424.692 555.66 431.807 555.775 440.502 555.775H456.365L456.787 554.453C457.419 552.67 457.103 552.325 454.837 552.325C452.044 552.268 448.618 550.428 447.353 548.185C446.405 546.575 446.247 545.655 446.51 542.55C446.668 540.48 450.463 522.483 454.995 502.588C459.527 482.635 463.743 464.12 464.375 461.303C464.955 458.543 465.64 456.3 465.851 456.3C466.009 456.3 466.325 457.508 466.483 459.003C466.642 460.555 467.59 468.088 468.644 475.85C469.698 483.613 471.385 496.148 472.386 503.738C473.387 511.328 475.074 523.863 476.128 531.625C477.182 539.388 478.288 547.898 478.604 550.6C479.079 554.108 479.448 555.545 480.027 555.66C480.554 555.718 481.977 553.763 484.033 550.198C487.458 544.275 501.529 519.895 516.548 493.963C521.502 485.395 528.564 473.148 532.306 466.708C535.995 460.21 539.051 455.265 539.051 455.668C539.051 457.163 519.552 542.608 518.709 544.735C516.865 549.565 512.912 552.268 507.642 552.325C505.165 552.325 504.322 552.555 504.059 553.245C503.215 555.66 502.583 555.603 527.879 555.315C541.107 555.2 552.016 555.028 552.016 554.97C552.068 554.97 552.279 554.338 552.437 553.59C552.806 552.383 552.701 552.325 549.749 552.325C544.005 552.268 541.423 549.738 541.897 544.563C542.003 542.953 546.535 522.253 551.963 498.448C562.766 450.838 562.661 451.24 567.14 448.883C568.353 448.25 571.093 447.56 573.201 447.33C576.732 446.985 576.995 446.87 576.995 445.605V444.225H558.181L539.315 444.283L518.762 480.45C507.484 500.345 498.051 516.618 497.84 516.675C497.366 516.675 497.576 518.343 492.675 480.163C490.357 462.108 488.301 446.698 488.143 445.778L487.827 444.225H468.96C452.254 444.225 450.041 444.34 449.778 445.145Z" fill="#B8B8B8"/>
<path d="M582.634 444.628C582.424 444.8 582.266 445.433 582.266 445.95C582.266 446.755 582.951 447.043 585.533 447.33C589.327 447.733 591.752 449.113 592.753 451.355C593.701 453.598 593.491 454.633 582.371 503.45C574.835 536.455 572.674 545.023 571.567 546.92C569.565 550.14 566.614 551.808 562.292 552.153C559.025 552.44 557.497 553.245 557.497 554.74C557.497 555.028 568.458 555.143 581.897 555.085C606.191 554.913 606.244 554.913 606.402 553.705C606.56 552.613 606.244 552.44 603.135 552.21C597.074 551.635 595.019 548.99 595.968 542.953C596.811 537.835 614.202 461.303 615.519 456.99C617.522 450.493 620.42 448.02 626.955 447.33C628.905 447.1 630.644 446.64 630.855 446.295C632.12 444.225 631.856 444.225 607.14 444.225C593.86 444.225 582.793 444.398 582.634 444.628Z" fill="#B8B8B8"/>
<path d="M636.599 458.485C634.807 466.305 633.384 473.033 633.384 473.435C633.384 473.838 633.859 474.125 634.386 474.125C635.176 474.125 636.125 472.63 638.233 468.26C640.288 463.948 641.974 461.36 644.715 458.313C648.615 454 651.302 452.275 655.94 451.183C658.68 450.55 668.693 450.263 668.693 450.838C668.693 451.01 663.95 472.055 658.101 497.643C646.454 548.875 646.717 548.185 642.185 550.543C640.973 551.175 638.285 551.865 636.177 552.095C632.752 552.44 632.383 552.613 632.172 553.82L631.961 555.2L656.256 555.085C680.498 554.913 680.551 554.913 680.709 553.705C680.867 552.613 680.551 552.44 677.652 552.153C671.961 551.463 670.064 549.623 670.222 544.85C670.274 543.355 674.965 521.62 680.709 496.493L691.144 450.838H698.258C705.32 450.838 705.425 450.838 707.639 452.563C710.221 454.46 712.803 458.945 713.225 462.338C713.436 463.603 713.646 465.155 713.752 465.788C713.857 466.42 713.963 468.548 713.963 470.503C714.015 473.953 714.068 474.125 715.28 474.125C716.492 474.125 716.703 473.608 719.76 459.693C721.551 451.815 722.974 445.088 722.974 444.743C722.974 444.455 707.217 444.225 681.394 444.225H639.814L636.599 458.485Z" fill="#B8B8B8"/>
</svg>
