<?xml version="1.0" ?><svg data-name="Social Media Icons" id="Social_Media_Icons" viewBox="0 0 512 512" xmlns="http://www.w3.org/2000/svg"><defs><style>.cls-1{fill:#fff;}</style></defs><g id="Notion"><path d="M126,511.94,474.65,490.7a28,28,0,0,0,26.24-27.9V99.49a10.72,10.72,0,0,0-4.54-8.76L382.64,10.55A57.77,57.77,0,0,0,345.37.14L39.16,21.41a30.14,30.14,0,0,0-28,30.07V380a15.58,15.58,0,0,0,3.16,9.4l82.92,109.3A33.64,33.64,0,0,0,126,511.94Z"/><path class="cls-1" d="M111.54,152.73v300A19.48,19.48,0,0,0,132,472.17l318.09-15.9a19.18,19.18,0,0,0,18.22-19.16V131.39a14.9,14.9,0,0,0-15.71-14.88L129.21,134.08A18.68,18.68,0,0,0,111.54,152.73Z"/><path class="cls-1" d="M428.63,83.52l-307,17.34A31.89,31.89,0,0,1,100,94L55.65,58.88a4.83,4.83,0,0,1,2.63-8.6l283.36-22A51.32,51.32,0,0,1,375.82,38l54.52,39.7A3.22,3.22,0,0,1,428.63,83.52Z"/><path d="M417.05,168.18l-.34,8.32a9.53,9.53,0,0,1-8.09,9l-15.46,2.33V403.79a5.42,5.42,0,0,1-3.45,5l-17.2,6.77a36.56,36.56,0,0,1-44-14.08l-100.78-155v146l.59-.14,29.7,7.86a2,2,0,0,1,1.26,2.72h0a25.8,25.8,0,0,1-21.67,14.72l-9.88.63-37.76,2.42-24.81,1.59a2.2,2.2,0,0,1-2.25-2.8l2.15-7.44a8.29,8.29,0,0,1,6-5.77l18.9-4.6V204.44l-26.52-1.65,3-10.86a15.08,15.08,0,0,1,13.73-11.06l9.8-.52,37.76-2L252,177.09a7.2,7.2,0,0,1,6.38,3.21L278,209.92l79.49,120V192.16l-24.26-1.29a1.79,1.79,0,0,1-1.7-1.67,16.57,16.57,0,0,1,1.13-7.36c3-7.33,11.47-12.08,21.52-12.21l3.31-.19,35.69-1.92,22-1.2A1.79,1.79,0,0,1,417.05,168.18Z"/></g></svg>